{"glyphs":{":":{"x_min":0,"x_max":182,"ha":182,"o":"m 142 705 l 142 583 l 40 583 l 40 705 z m 142 122 l 142 0 l 40 0 l 40 122 z"},"$":{"x_min":0,"x_max":380,"ha":380,"o":"m 131 187 l 131 117 q 131 87 160 87 l 201 87 q 230 87 229 117 l 229 249 q 229 269 222 276 q 216 282 205 288 l 84 364 q 68 375 59 384 q 50 394 46 404 q 42 413 41 424 q 40 435 40 449 l 40 595 q 40 716 151 718 l 151 794 l 220 794 l 220 717 q 321 709 321 595 l 321 525 l 225 525 l 225 600 q 226 631 195 631 l 167 631 q 134 631 136 599 l 136 461 q 136 441 144 434 q 152 428 165 421 l 285 349 q 311 333 318 317 q 325 301 325 268 l 325 121 q 325 4 217 0 l 217 -76 l 148 -76 l 148 0 q 35 2 35 132 l 35 187 z"},"?":{"x_min":0,"x_max":376,"ha":376,"o":"m 121 194 l 121 315 q 121 331 122 342 q 124 352 128 359 q 132 366 138 372 q 144 378 153 386 l 222 437 q 234 447 237 456 q 240 464 240 484 l 240 587 q 240 631 198 631 l 161 631 q 121 631 121 587 l 121 535 l 25 535 l 25 595 q 25 718 140 718 l 222 718 q 336 718 336 595 l 336 453 q 336 436 334 426 q 332 415 328 408 q 324 400 318 394 q 311 388 302 380 l 235 329 q 223 320 220 312 q 217 303 217 283 l 217 194 z m 222 122 l 222 0 l 120 0 l 120 122 z"},"<":{"x_min":0,"x_max":298,"ha":298,"o":"m 268 165 l 268 48 l 20 278 l 20 341 l 268 573 l 268 454 l 109 309 z"},"'":{"x_min":0,"x_max":155,"ha":155,"o":"m 113 470 l 42 470 l 30 718 l 125 718 z"},"=":{"x_min":0,"x_max":370,"ha":370,"o":"m 40 222 l 40 304 l 330 304 l 330 222 z m 40 384 l 40 466 l 330 466 l 330 384 z"},"a":{"x_min":0,"x_max":382,"ha":382,"o":"m 136 0 l 40 0 l 40 595 q 40 718 155 718 l 227 718 q 342 718 342 595 l 342 0 l 246 0 l 246 263 l 136 263 z m 246 350 l 246 589 q 246 631 204 631 l 178 631 q 136 631 136 589 l 136 350 z"},"L":{"x_min":0,"x_max":277,"ha":277,"o":"m 257 0 l 45 0 l 45 718 l 141 718 l 141 80 l 257 80 z"},"3":{"x_min":0,"x_max":373,"ha":373,"o":"m 258 369 q 333 358 333 298 l 333 122 q 333 0 218 0 l 153 0 q 38 0 38 122 l 38 188 l 134 188 l 134 119 q 134 87 162 87 l 208 87 q 237 87 237 119 l 237 279 q 237 324 191 324 l 155 324 l 155 405 l 183 405 q 225 405 225 444 l 225 598 q 225 630 194 630 l 159 630 q 131 630 131 598 l 131 515 l 35 515 l 35 595 q 35 718 150 718 l 206 718 q 321 718 321 595 l 321 442 q 321 379 258 369 z"},";":{"x_min":0,"x_max":187,"ha":187,"o":"m 41 -119 l 87 0 l 40 0 l 40 124 l 147 124 l 147 0 l 99 -119 z m 142 705 l 142 583 l 40 583 l 40 705 z"},"J":{"x_min":0,"x_max":267,"ha":267,"o":"m 20 80 l 96 80 q 126 80 126 118 l 126 718 l 222 718 l 222 121 q 222 0 111 0 l 20 0 z"},"V":{"x_min":0,"x_max":366,"ha":366,"o":"m 356 718 l 240 0 l 126 0 l 10 718 l 105 718 l 183 170 l 261 718 z"},"\"":{"x_min":0,"x_max":299,"ha":299,"o":"m 113 480 l 42 480 l 30 718 l 125 718 z m 257 480 l 186 480 l 174 718 l 269 718 z"},"7":{"x_min":0,"x_max":303,"ha":303,"o":"m 10 629 l 10 718 l 261 718 l 288 666 l 160 0 l 65 0 l 189 629 z"},"S":{"x_min":0,"x_max":370,"ha":370,"o":"m 230 495 l 230 607 q 231 638 200 638 l 172 638 q 139 638 141 606 l 141 461 q 141 441 149 434 q 157 428 170 421 l 290 349 q 316 333 323 317 q 330 301 330 268 l 330 121 q 330 0 214 0 l 155 0 q 40 0 40 132 l 40 187 l 136 187 l 136 110 q 136 80 165 80 l 206 80 q 235 80 234 110 l 234 256 q 234 276 228 282 q 221 289 210 295 l 89 371 q 73 382 64 392 q 55 401 51 410 q 47 420 46 431 q 45 442 45 456 l 45 595 q 45 718 160 718 l 211 718 q 326 718 326 595 l 326 495 z"},"}":{"x_min":0,"x_max":253,"ha":253,"o":"m 155 430 q 92 443 92 507 l 92 698 q 92 749 49 749 l 20 749 l 20 818 l 65 818 q 176 818 176 695 l 176 520 q 176 468 233 468 l 233 387 q 176 387 176 335 l 176 123 q 176 0 65 0 l 20 0 l 20 69 l 49 69 q 92 69 92 120 l 92 344 q 92 410 155 430 z"},"Z":{"x_min":0,"x_max":303,"ha":303,"o":"m 278 80 l 278 0 l 31 0 l 25 69 l 180 637 l 41 637 l 41 718 l 272 718 l 277 650 l 126 80 z"},"x":{"x_min":0,"x_max":330,"ha":330,"o":"m 218 366 l 320 0 l 234 0 l 166 251 l 164 251 l 96 0 l 10 0 l 111 366 l 20 718 l 107 718 l 164 483 l 166 483 l 223 718 l 310 718 z"},")":{"x_min":0,"x_max":206,"ha":206,"o":"m 0 75 l 30 75 q 72 75 72 126 l 72 591 q 72 642 30 642 l 0 642 l 0 718 l 46 718 q 156 718 156 595 l 156 122 q 156 0 46 0 l 0 0 z"},"&":{"x_min":0,"x_max":373,"ha":373,"o":"m 106 371 q 52 386 52 453 l 52 613 q 52 718 157 718 l 215 718 q 320 718 320 613 l 320 532 l 230 532 l 230 611 q 230 638 201 638 l 171 638 q 142 632 142 611 l 142 436 q 142 402 172 402 l 363 402 l 363 331 l 320 331 l 320 112 q 320 0 214 0 l 146 0 q 40 0 40 112 l 40 285 q 40 359 106 371 z m 167 331 q 130 331 130 292 l 130 106 q 130 80 154 80 l 205 80 q 230 80 230 106 l 230 331 z"},"_":{"x_min":0,"x_max":275,"ha":275,"o":"m -10 -71 l -10 0 l 285 0 l 285 -71 z"},"v":{"x_min":0,"x_max":366,"ha":366,"o":"m 356 718 l 240 0 l 126 0 l 10 718 l 105 718 l 183 170 l 261 718 z"},"O":{"x_min":0,"x_max":402,"ha":402,"o":"m 161 0 q 45 0 45 122 l 45 595 q 45 718 160 718 l 242 718 q 357 718 357 595 l 357 122 q 357 0 241 0 z m 228 80 q 261 80 261 117 l 261 601 q 261 638 223 638 l 178 638 q 141 638 141 601 l 141 117 q 141 80 179 80 z"},"(":{"x_min":0,"x_max":206,"ha":206,"o":"m 206 0 l 160 0 q 50 0 50 122 l 50 595 q 50 718 160 718 l 206 718 l 206 642 l 176 642 q 134 642 134 591 l 134 126 q 134 75 176 75 l 206 75 z"},"C":{"x_min":0,"x_max":367,"ha":367,"o":"m 337 188 l 337 122 q 337 0 222 0 l 160 0 q 45 0 45 122 l 45 596 q 45 718 160 718 l 222 718 q 337 718 337 596 l 337 495 l 241 495 l 241 596 q 241 638 198 638 l 179 638 q 141 638 141 596 l 141 122 q 141 80 179 80 l 203 80 q 241 80 241 122 l 241 188 z"},"W":{"x_min":0,"x_max":557,"ha":557,"o":"m 220 0 l 116 0 l 10 718 l 105 718 l 173 180 l 241 718 l 316 718 l 384 180 l 452 718 l 547 718 l 441 0 l 337 0 l 278 416 z"},"A":{"x_min":0,"x_max":382,"ha":382,"o":"m 136 0 l 40 0 l 40 595 q 40 718 155 718 l 227 718 q 342 718 342 595 l 342 0 l 246 0 l 246 263 l 136 263 z m 246 350 l 246 589 q 246 631 204 631 l 178 631 q 136 631 136 589 l 136 350 z"},"f":{"x_min":0,"x_max":287,"ha":287,"o":"m 257 393 l 257 313 l 141 313 l 141 0 l 45 0 l 45 718 l 257 718 l 257 638 l 141 638 l 141 393 z"},"Q":{"x_min":0,"x_max":402,"ha":402,"o":"m 402 80 l 402 0 l 161 0 q 45 0 45 122 l 45 595 q 45 718 160 718 l 242 718 q 357 718 357 595 l 357 80 z m 261 601 q 261 638 223 638 l 178 638 q 141 638 141 601 l 141 117 q 141 80 179 80 l 261 80 z"},"w":{"x_min":0,"x_max":557,"ha":557,"o":"m 220 0 l 116 0 l 10 718 l 105 718 l 173 180 l 241 718 l 316 718 l 384 180 l 452 718 l 547 718 l 441 0 l 337 0 l 278 416 z"},"-":{"x_min":0,"x_max":240,"ha":240,"o":"m 10 313 l 10 393 l 230 393 l 230 313 z"},"E":{"x_min":0,"x_max":287,"ha":287,"o":"m 45 0 l 45 718 l 257 718 l 257 638 l 141 638 l 141 393 l 257 393 l 257 313 l 141 313 l 141 80 l 257 80 l 257 0 z"},"s":{"x_min":0,"x_max":370,"ha":370,"o":"m 230 495 l 230 607 q 231 638 200 638 l 172 638 q 139 638 141 606 l 141 461 q 141 441 149 434 q 157 428 170 421 l 290 349 q 316 333 323 317 q 330 301 330 268 l 330 121 q 330 0 214 0 l 155 0 q 40 0 40 132 l 40 187 l 136 187 l 136 110 q 136 80 165 80 l 206 80 q 235 80 234 110 l 234 256 q 234 276 228 282 q 221 289 210 295 l 89 371 q 73 382 64 392 q 55 401 51 410 q 47 420 46 431 q 45 442 45 456 l 45 595 q 45 718 160 718 l 211 718 q 326 718 326 595 l 326 495 z"},">":{"x_min":0,"x_max":298,"ha":298,"o":"m 30 454 l 30 571 l 278 342 l 278 278 l 30 46 l 30 165 l 189 310 z"},"l":{"x_min":0,"x_max":277,"ha":277,"o":"m 257 0 l 45 0 l 45 718 l 141 718 l 141 80 l 257 80 z"},"8":{"x_min":0,"x_max":383,"ha":383,"o":"m 116 366 q 47 381 47 443 l 47 595 q 47 718 162 718 l 221 718 q 336 718 336 595 l 336 442 q 336 380 273 365 q 343 355 343 269 l 343 122 q 343 0 228 0 l 155 0 q 40 0 40 122 l 40 270 q 40 353 116 366 z m 204 87 q 247 87 247 139 l 247 288 q 247 324 211 324 l 167 324 q 136 323 136 288 l 136 139 q 136 87 179 87 z m 143 441 q 143 407 172 407 l 210 407 q 239 409 240 442 l 240 599 q 240 630 206 630 l 176 630 q 143 630 143 599 z"},"\\":{"x_min":0,"x_max":267,"ha":267,"o":"m 58 768 l 277 -50 l 210 -50 l -10 768 z"},"e":{"x_min":0,"x_max":287,"ha":287,"o":"m 45 0 l 45 718 l 257 718 l 257 638 l 141 638 l 141 393 l 257 393 l 257 313 l 141 313 l 141 80 l 257 80 l 257 0 z"},"b":{"x_min":0,"x_max":382,"ha":382,"o":"m 268 355 q 347 355 347 278 l 347 107 q 347 0 238 0 l 45 0 l 45 718 l 199 718 q 327 718 327 588 l 327 436 q 325 371 268 355 z m 141 80 l 221 80 q 251 80 251 111 l 251 262 q 251 313 194 313 l 141 313 z m 141 393 l 184 393 q 212 393 222 404 q 231 414 231 440 l 231 586 q 231 638 188 638 l 141 638 z"},"%":{"x_min":0,"x_max":696,"ha":696,"o":"m 530 0 q 444 0 444 85 l 444 299 q 444 384 530 384 l 569 384 q 656 384 656 299 l 656 85 q 656 0 569 0 z m 126 334 q 40 334 40 419 l 40 633 q 40 718 126 718 l 165 718 q 252 718 252 633 l 252 419 q 252 334 165 334 z m 492 718 l 264 0 l 203 0 l 431 718 z m 134 655 q 116 655 116 639 l 116 414 q 116 396 134 396 l 156 396 q 176 396 176 414 l 176 639 q 176 655 156 655 z m 538 321 q 520 321 520 305 l 520 80 q 520 62 538 62 l 560 62 q 580 62 580 80 l 580 305 q 580 321 560 321 z"},"m":{"x_min":0,"x_max":480,"ha":480,"o":"m 240 296 l 329 718 l 435 718 l 435 0 l 339 0 l 349 470 l 277 130 l 203 130 l 131 470 l 141 0 l 45 0 l 45 718 l 151 718 z"},"#":{"x_min":0,"x_max":465,"ha":465,"o":"m 146 176 l 125 0 l 57 0 l 78 176 l 0 176 l 8 244 l 87 244 l 116 479 l 37 479 l 45 547 l 124 547 l 145 718 l 213 718 l 192 547 l 293 547 l 314 718 l 382 718 l 361 547 l 435 547 l 427 479 l 353 479 l 324 244 l 398 244 l 390 176 l 315 176 l 294 0 l 226 0 l 247 176 z m 184 479 l 155 244 l 256 244 l 285 479 z"},",":{"x_min":0,"x_max":167,"ha":167,"o":"m 31 -119 l 77 0 l 30 0 l 30 124 l 137 124 l 137 0 l 89 -119 z"},"n":{"x_min":0,"x_max":385,"ha":385,"o":"m 244 718 l 340 718 l 340 0 l 244 0 l 244 143 l 141 470 l 141 0 l 45 0 l 45 718 l 141 718 l 244 371 z"},"h":{"x_min":0,"x_max":392,"ha":392,"o":"m 251 0 l 251 313 l 141 313 l 141 0 l 45 0 l 45 718 l 141 718 l 141 393 l 251 393 l 251 718 l 347 718 l 347 0 z"},"z":{"x_min":0,"x_max":303,"ha":303,"o":"m 278 80 l 278 0 l 31 0 l 25 69 l 180 637 l 41 637 l 41 718 l 272 718 l 277 650 l 126 80 z"},"B":{"x_min":0,"x_max":382,"ha":382,"o":"m 268 355 q 347 355 347 278 l 347 107 q 347 0 238 0 l 45 0 l 45 718 l 199 718 q 327 718 327 588 l 327 436 q 325 371 268 355 z m 141 80 l 221 80 q 251 80 251 111 l 251 262 q 251 313 194 313 l 141 313 z m 141 393 l 184 393 q 212 393 222 404 q 231 414 231 440 l 231 586 q 231 638 188 638 l 141 638 z"},"K":{"x_min":0,"x_max":354,"ha":354,"o":"m 141 356 l 244 718 l 332 718 l 228 360 l 354 0 l 258 0 l 141 350 l 141 0 l 45 0 l 45 718 l 141 718 z"},"R":{"x_min":0,"x_max":373,"ha":373,"o":"m 252 0 l 189 290 l 131 290 l 131 0 l 35 0 l 35 718 l 223 718 q 333 718 333 595 l 333 418 q 333 324 276 299 l 343 0 z m 131 372 l 194 372 q 237 372 237 424 l 237 579 q 237 631 194 631 l 131 631 z"},"T":{"x_min":0,"x_max":300,"ha":300,"o":"m 198 638 l 198 0 l 102 0 l 102 638 l 10 638 l 10 718 l 290 718 l 290 638 z"},"P":{"x_min":0,"x_max":372,"ha":372,"o":"m 141 0 l 45 0 l 45 718 l 226 718 q 342 718 342 595 l 342 431 q 342 356 295 314 q 248 273 157 273 l 141 273 z m 141 353 l 157 353 q 202 353 224 370 q 246 387 246 425 l 246 606 q 248 638 212 638 l 141 638 z"},"|":{"x_min":0,"x_max":208,"ha":208,"o":"m 70 -100 l 70 818 l 138 818 l 138 -100 z"},"t":{"x_min":0,"x_max":300,"ha":300,"o":"m 198 638 l 198 0 l 102 0 l 102 638 l 10 638 l 10 718 l 290 718 l 290 638 z"},"M":{"x_min":0,"x_max":480,"ha":480,"o":"m 240 296 l 329 718 l 435 718 l 435 0 l 339 0 l 349 470 l 277 130 l 203 130 l 131 470 l 141 0 l 45 0 l 45 718 l 151 718 z"},"g":{"x_min":0,"x_max":390,"ha":390,"o":"m 344 353 l 345 0 l 160 0 q 45 0 45 122 l 45 596 q 45 718 160 718 l 222 718 q 337 718 337 596 l 337 495 l 241 495 l 241 589 q 241 631 198 631 l 179 631 q 141 631 141 589 l 141 129 q 141 87 184 87 l 248 87 l 248 273 l 190 273 l 190 353 z"},"j":{"x_min":0,"x_max":267,"ha":267,"o":"m 20 80 l 96 80 q 126 80 126 118 l 126 718 l 222 718 l 222 121 q 222 0 111 0 l 20 0 z"},"i":{"x_min":0,"x_max":186,"ha":186,"o":"m 45 0 l 45 718 l 141 718 l 141 0 z"},"y":{"x_min":0,"x_max":350,"ha":350,"o":"m 180 406 l 245 718 l 340 718 l 224 264 l 224 0 l 128 0 l 128 264 l 10 718 l 105 718 l 177 406 z"},"@":{"x_min":0,"x_max":549,"ha":549,"o":"m 504 0 l 45 0 l 45 533 q 45 626 94 672 q 144 719 222 718 l 312 718 q 419 718 461 672 q 504 629 504 555 l 504 106 l 318 106 l 318 280 l 240 280 l 240 106 l 169 106 l 169 516 q 169 607 254 607 l 304 607 q 389 607 389 516 l 389 165 l 438 165 l 438 550 q 438 604 408 630 q 378 656 315 656 l 225 656 q 168 655 140 624 q 111 592 111 537 l 111 63 l 504 63 z m 318 345 l 318 527 q 318 543 294 543 l 264 543 q 240 543 240 527 l 240 345 z"},".":{"x_min":0,"x_max":182,"ha":182,"o":"m 142 122 l 142 0 l 40 0 l 40 122 z"},"p":{"x_min":0,"x_max":372,"ha":372,"o":"m 141 0 l 45 0 l 45 718 l 226 718 q 342 718 342 595 l 342 431 q 342 356 295 314 q 248 273 157 273 l 141 273 z m 141 353 l 157 353 q 202 353 224 370 q 246 387 246 425 l 246 606 q 248 638 212 638 l 141 638 z"},"X":{"x_min":0,"x_max":330,"ha":330,"o":"m 218 366 l 320 0 l 234 0 l 166 251 l 164 251 l 96 0 l 10 0 l 111 366 l 20 718 l 107 718 l 164 483 l 166 483 l 223 718 l 310 718 z"},"*":{"x_min":0,"x_max":356,"ha":356,"o":"m 88 690 l 158 618 l 166 624 l 174 727 l 268 696 l 218 606 l 222 599 l 323 623 l 326 535 l 228 549 l 224 542 l 284 463 l 202 416 l 174 518 l 165 521 l 92 445 l 36 518 l 126 561 l 124 570 l 30 612 z"},"Y":{"x_min":0,"x_max":350,"ha":350,"o":"m 180 406 l 245 718 l 340 718 l 224 264 l 224 0 l 128 0 l 128 264 l 10 718 l 105 718 l 177 406 z"},"c":{"x_min":0,"x_max":367,"ha":367,"o":"m 337 188 l 337 122 q 337 0 222 0 l 160 0 q 45 0 45 122 l 45 596 q 45 718 160 718 l 222 718 q 337 718 337 596 l 337 495 l 241 495 l 241 596 q 241 638 198 638 l 179 638 q 141 638 141 596 l 141 122 q 141 80 179 80 l 203 80 q 241 80 241 122 l 241 188 z"},"!":{"x_min":0,"x_max":178,"ha":178,"o":"m 142 718 l 130 194 l 49 194 l 36 718 z m 142 122 l 142 0 l 40 0 l 40 122 z"},"/":{"x_min":0,"x_max":267,"ha":267,"o":"m 277 768 l 57 -50 l -10 -50 l 209 768 z"},"[":{"x_min":0,"x_max":225,"ha":225,"o":"m 50 0 l 50 718 l 205 718 l 205 647 l 133 647 l 133 71 l 205 71 l 205 0 z"},"6":{"x_min":0,"x_max":385,"ha":385,"o":"m 238 524 l 238 599 q 238 631 205 631 l 170 631 q 141 631 141 599 l 141 409 l 201 411 l 230 411 q 340 411 340 288 l 340 121 q 340 0 230 0 l 155 0 q 45 0 45 111 l 45 595 q 45 718 155 718 l 224 718 q 334 718 334 595 l 334 524 z m 141 119 q 141 87 170 87 l 215 87 q 244 87 244 118 l 244 291 q 244 324 211 324 l 141 324 z"},"r":{"x_min":0,"x_max":373,"ha":373,"o":"m 252 0 l 189 290 l 131 290 l 131 0 l 35 0 l 35 718 l 223 718 q 333 718 333 595 l 333 418 q 333 324 276 299 l 343 0 z m 131 372 l 194 372 q 237 372 237 424 l 237 579 q 237 631 194 631 l 131 631 z"},"2":{"x_min":0,"x_max":369,"ha":369,"o":"m 312 86 l 312 0 l 54 0 l 54 176 q 54 204 60 220 q 66 236 84 256 l 209 405 q 218 415 220 421 q 221 427 221 441 l 221 604 q 221 631 195 631 l 162 631 q 133 631 133 603 l 133 515 l 37 515 l 37 595 q 37 718 152 718 l 202 718 q 317 718 317 595 l 317 426 q 317 406 312 391 q 306 376 292 358 l 160 204 q 151 192 150 182 q 150 173 150 161 l 150 86 z"},"{":{"x_min":0,"x_max":253,"ha":253,"o":"m 98 420 q 161 400 161 334 l 161 120 q 161 69 204 69 l 233 69 l 233 0 l 188 0 q 77 0 77 123 l 77 325 q 77 377 20 377 l 20 458 q 77 458 77 510 l 77 695 q 77 818 188 818 l 233 818 l 233 749 l 204 749 q 161 749 161 698 l 161 497 q 161 433 98 420 z"},"9":{"x_min":0,"x_max":383,"ha":383,"o":"m 160 263 q 45 263 45 391 l 45 592 q 45 718 160 718 l 223 718 q 338 718 338 592 l 338 128 q 338 0 223 0 l 166 0 q 51 0 51 128 l 51 178 l 147 178 l 147 119 q 147 87 176 87 l 217 87 q 242 87 242 119 l 242 264 z m 242 350 l 242 602 q 242 631 205 631 l 174 631 q 141 631 141 602 l 141 385 q 141 350 174 350 z"}," ":{"x_min":0,"x_max":200,"ha":200,"o":""},"I":{"x_min":0,"x_max":186,"ha":186,"o":"m 45 0 l 45 718 l 141 718 l 141 0 z"},"H":{"x_min":0,"x_max":392,"ha":392,"o":"m 251 0 l 251 313 l 141 313 l 141 0 l 45 0 l 45 718 l 141 718 l 141 393 l 251 393 l 251 718 l 347 718 l 347 0 z"},"4":{"x_min":0,"x_max":367,"ha":367,"o":"m 352 138 l 297 138 l 297 0 l 203 0 l 203 138 l 65 138 q 52 138 45 143 q 38 148 35 165 l 27 214 l 173 718 l 297 718 l 297 219 l 352 219 z m 221 597 l 216 597 l 117 219 l 206 219 z"},"~":{"x_min":0,"x_max":439,"ha":439,"o":"m 399 718 q 399 680 388 657 q 376 634 358 620 q 340 607 319 602 q 298 598 280 598 q 261 598 244 606 q 226 613 210 622 q 193 631 178 638 q 164 646 152 646 q 135 646 124 636 q 112 625 112 599 l 40 599 q 40 636 52 660 q 63 684 80 697 q 96 710 115 715 q 134 720 149 720 q 168 720 184 712 q 199 705 213 696 q 227 686 241 678 q 255 671 270 671 q 288 671 305 682 q 322 692 322 718 z"},"D":{"x_min":0,"x_max":387,"ha":387,"o":"m 45 718 l 212 718 q 347 718 347 580 l 347 104 q 347 0 232 0 l 45 0 z m 141 87 l 213 87 q 251 87 251 119 l 251 579 q 251 631 208 631 l 141 631 z"},"^":{"x_min":0,"x_max":412,"ha":412,"o":"m 124 586 l 30 586 l 176 718 l 236 718 l 382 586 l 288 586 l 206 660 z"},"0":{"x_min":0,"x_max":387,"ha":387,"o":"m 160 0 q 45 0 45 123 l 45 595 q 45 718 160 718 l 227 718 q 342 718 342 595 l 342 123 q 342 0 227 0 z m 174 631 q 141 631 141 598 l 141 121 q 141 87 170 87 l 216 87 q 246 87 246 122 l 246 598 q 246 631 211 631 z"},"F":{"x_min":0,"x_max":287,"ha":287,"o":"m 257 393 l 257 313 l 141 313 l 141 0 l 45 0 l 45 718 l 257 718 l 257 638 l 141 638 l 141 393 z"},"`":{"x_min":0,"x_max":194,"ha":194,"o":"m 96 552 l 30 680 l 118 680 l 164 552 z"},"k":{"x_min":0,"x_max":354,"ha":354,"o":"m 141 356 l 244 718 l 332 718 l 228 360 l 354 0 l 258 0 l 141 350 l 141 0 l 45 0 l 45 718 l 141 718 z"},"u":{"x_min":0,"x_max":392,"ha":392,"o":"m 347 718 l 347 136 q 347 0 210 0 l 181 0 q 45 0 45 137 l 45 718 l 141 718 l 141 134 q 141 111 150 99 q 160 87 183 87 l 207 87 q 251 87 251 134 l 251 718 z"},"]":{"x_min":0,"x_max":225,"ha":225,"o":"m 20 0 l 20 71 l 92 71 l 92 647 l 20 647 l 20 718 l 175 718 l 175 0 z"},"U":{"x_min":0,"x_max":392,"ha":392,"o":"m 347 718 l 347 136 q 347 0 210 0 l 181 0 q 45 0 45 137 l 45 718 l 141 718 l 141 134 q 141 111 150 99 q 160 87 183 87 l 207 87 q 251 87 251 134 l 251 718 z"},"o":{"x_min":0,"x_max":402,"ha":402,"o":"m 161 0 q 45 0 45 122 l 45 595 q 45 718 160 718 l 242 718 q 357 718 357 595 l 357 122 q 357 0 241 0 z m 228 80 q 261 80 261 117 l 261 601 q 261 638 223 638 l 178 638 q 141 638 141 601 l 141 117 q 141 80 179 80 z"},"N":{"x_min":0,"x_max":385,"ha":385,"o":"m 244 718 l 340 718 l 340 0 l 244 0 l 244 143 l 141 470 l 141 0 l 45 0 l 45 718 l 141 718 l 244 371 z"},"+":{"x_min":0,"x_max":381,"ha":381,"o":"m 238 310 l 238 198 l 150 198 l 150 310 l 40 310 l 40 394 l 150 394 l 150 510 l 238 510 l 238 394 l 341 394 l 341 310 z"},"G":{"x_min":0,"x_max":390,"ha":390,"o":"m 344 353 l 345 0 l 160 0 q 45 0 45 122 l 45 596 q 45 718 160 718 l 222 718 q 337 718 337 596 l 337 495 l 241 495 l 241 589 q 241 631 198 631 l 179 631 q 141 631 141 589 l 141 129 q 141 87 184 87 l 248 87 l 248 273 l 190 273 l 190 353 z"},"q":{"x_min":0,"x_max":402,"ha":402,"o":"m 402 80 l 402 0 l 161 0 q 45 0 45 122 l 45 595 q 45 718 160 718 l 242 718 q 357 718 357 595 l 357 80 z m 261 601 q 261 638 223 638 l 178 638 q 141 638 141 601 l 141 117 q 141 80 179 80 l 261 80 z"},"d":{"x_min":0,"x_max":387,"ha":387,"o":"m 45 718 l 212 718 q 347 718 347 580 l 347 104 q 347 0 232 0 l 45 0 z m 141 87 l 213 87 q 251 87 251 119 l 251 579 q 251 631 208 631 l 141 631 z"},"1":{"x_min":0,"x_max":242,"ha":242,"o":"m 44 548 l 7 622 q 32 636 50 648 q 68 661 79 671 q 90 680 100 692 q 109 704 119 718 l 129 718 l 192 684 l 192 0 l 97 0 l 97 578 z"},"5":{"x_min":0,"x_max":364,"ha":364,"o":"m 136 115 q 136 87 164 87 l 201 87 q 228 87 228 115 l 228 311 q 228 340 194 340 l 43 340 l 43 718 l 314 718 l 314 629 l 133 629 l 133 427 l 218 427 q 324 427 324 329 l 324 127 q 324 0 209 0 l 155 0 q 40 0 40 122 l 40 178 l 136 178 z"}}}
